<svg xmlns="http://www.w3.org/2000/svg" width="126.36842346191406" height="126.63157653808594"><rect id="backgroundrect" width="100%" height="100%" x="0" y="0" fill="none" stroke="none" class="" style=""/>
  
<g class="currentLayer" style=""><title>Layer 1</title><path fill="#6d6d6d" fill-opacity="1" stroke="none" stroke-opacity="1" stroke-width="1" stroke-dasharray="none" stroke-linejoin="miter" stroke-linecap="butt" stroke-dashoffset="" fill-rule="nonzero" opacity="1" marker-start="" marker-mid="" marker-end="" d="M3.3306690738754696e-16,62.5 C3.3306690738754696e-16,27.969613259668506 27.969613259668506,4.440892098500626e-16 62.5,4.440892098500626e-16 C97.0303867403315,4.440892098500626e-16 125,27.969613259668506 125,62.5 C125,97.0303867403315 97.0303867403315,125 62.5,125 C27.969613259668506,125 3.3306690738754696e-16,97.0303867403315 3.3306690738754696e-16,62.5 z" id="svg_2" class=""/><path d="M100.15095866135685,20.626025562568806 C79.18693006328671,23.13381939260592 63.07018473080723,31.369747469111584 52.24395673684208,45.10246349780192 L49.669426909008905,45.00067112831702 a12.127638676166534,11.900453377962112 0 0 0 -9.185318872928619,3.4701944142580032 L34.580607405224725,54.2730306032144 a2.9706113398075105,2.9149633079767225 0 0 0 0.9430512189865113,4.7564798104763035 l7.355799508094788,2.98899412214756 a55.50799474954605,54.468171526193615 0 0 0 -1.8861024379730227,6.348142315149308 l-0.3583594632148746,1.6009163564443587 a2.357628047466278,2.3134629428386693 0 0 0 0.6412748289108283,2.128385907411575 L54.87506963781445,85.39373411028018 a2.357628047466278,2.3134629428386693 0 0 0 2.1690178036689756,0.6292619204521186 l1.6314786088466644,-0.3423925155401232 a55.92293728590011,54.87534100413322 0 0 0 6.478761874437332,-1.850770354270935 l3.0554859495162967,7.218004381656646 a2.9706113398075105,2.9149633079767225 0 0 0 4.847283265590668,0.9253851771354675 l5.9223616552352905,-5.811418912410736 a12.137069188356401,11.909707229733469 0 0 0 3.536442071199417,-9.013251625299453 L82.37444318346112,74.71478916613688 C96.38818429760067,64.06360577730766 104.78134014658062,48.24877310006251 107.33700895003408,27.68671446411242 a6.459900850057601,6.338888463377952 0 0 0 -7.186050288677215,-7.051435049772262 zm2.50851624250412,6.477696239948273 C100.20754173449605,46.87920303790202 92.10673176340191,61.87969675926795 78.54565523437589,71.72579504398934 a2.357628047466278,2.3134629428386693 0 0 0 -0.9430512189865113,1.9803242790699005 l0.19804075598716747,3.70154070854187 h0 a7.421813093423843,7.282781344056129 0 0 1 -2.1595872914791108,5.552311062812805 L71.54821518949596,86.9391273560964 l-2.9234587788581847,-6.9126272732019425 a2.357628047466278,2.3134629428386693 0 0 0 -3.0366249251365662,-1.2677776926755906 A52.28275958061218,51.30335422039032 0 0 1 57.675931758204385,81.19248540608515 l-0.37722048759460464,0.08328466594219217 L45.57658461860744,69.72696306137671 l0.0848746097087861,-0.3701540708541871 a52.30162060499191,51.32186192393303 0 0 1 2.433072144985199,-7.773235487937928 A2.357628047466278,2.3134629428386693 0 0 0 46.84027325204937,58.603833232208395 l-7.035162093639374,-2.8686940491199495 l4.073981266021729,-3.99766396522522 a7.412382581233978,7.273527492284775 0 0 1 5.658307313919067,-2.119132055640221 l3.772204875946045,0.19433088719844827 a2.338767023086548,2.2949552392959593 0 0 0 2.018129608631134,-0.9253851771354675 c10.03406497001648,-13.288531143665313 25.33035574197769,-21.283859074115753 45.455068755149846,-23.652845127582548 a1.7446447551250461,1.7119625777006149 0 0 1 1.9426855111122132,1.9062934648990633 zM42.030712035218166,82.35847072927585 a2.8291536569595337,2.7761555314064026 0 0 0 0.21690178036689764,-4.164233297109604 a2.3010449743270875,2.257939832210541 0 0 0 -0.2829153656959536,-0.2313462942838669 c-3.9325235831737517,-2.7761555314064026 -7.742450507879258,-3.7755715227127076 -11.316614627838135,-2.840932493805885 C25.206678288498807,76.56555952040782 21.9908736317548,81.96980895487896 20.557435778895304,85.08835700182547 a3.4515674614906313,3.3869097483158113 0 0 0 3.772204875946045,4.719464403390884 l0.3112069022655489,-0.05552311062812811 c-3.460997973680496,4.13647174179554 -5.8469175577163695,10.077444579005242 -3.432706437110901,18.165311027169228 A3.432706437110901,3.3684020447731022 0 0 0 24.537111923018383,110.34211848585238 h0.11316614627838142 a3.479858998060227,3.4146713036298757 0 0 0 2.4896552181243896,-1.1567314714193344 c1.8861024379730227,-2.13763975918293 7.006870557069778,-3.8403484851121905 13.617659602165222,-4.5528950715065 a13.457340894937515,13.20524647772312 0 0 0 9.081583238840103,-4.7287182551622395 C54.196072760144155,94.64758588163485 52.16851263932316,88.5955668231689 48.820680811921044,84.69969522742858 a2.8291536569595337,2.7761555314064026 0 0 0 -2.1878788280487065,-0.9994159913063049 h0 a2.8291536569595337,2.7761555314064026 0 0 0 -2.206739852428436,1.027177546620369 a8.7043627512455,8.541305184960367 0 0 1 -5.573432704210282,3.118548046946526 A8.7043627512455,8.541305184960367 0 0 1 42.030712035218166,82.35847072927585 zm4.375757656097414,6.9681503838300705 c1.2448276090621948,2.045101241469383 2.0558516573905945,4.8952875870466235 -0.22633229255676285,7.652935414910316 A8.8929729950428,8.726382220387459 0 0 1 40.23891471914379,100.03332761256327 c-4.866144289970398,0.5274695509672165 -11.090282335281373,1.7489779847860336 -14.975653357505799,4.626925885677338 c-1.1410919749736785,-5.885449726581574 0.8487460970878602,-10.752975758314134 6.044958313703537,-14.80616283416748 A2.357628047466278,2.3134629428386693 0 0 0 30.704666895190165,85.81941129176249 a13.85342240691185,13.593908252120018 0 0 0 -4.781269680261612,-0.8143389558792117 H25.86681414178936 c1.2825496578216553,-2.2116705733537674 3.2912487542629245,-4.747225958704949 5.978944728374481,-5.441264841556549 a7.412382581233978,7.273527492284775 0 0 1 5.413113996982575,0.9253851771354675 A13.457340894937515,13.20524647772312 0 0 0 34.02420718602268,89.52095200030436 a3.1686520957946778,3.109294195175171 0 0 0 3.0743469738960263,3.016755677461624 A13.46677140712738,13.214500329494475 0 0 0 46.41590020350544,89.32662111310592 zM86.44842444948284,41.09554568080535 a9.694566531181335,9.512959620952605 0 1 0 0,13.455100475549697 h0 A9.713427555561067,9.531467324495317 0 0 0 86.44842444948284,41.09554568080535 zm-3.3384013152122503,10.179236948490143 h0 a4.979310436248779,4.8860337352752685 0 1 1 0,-6.9126272732019425 A4.951018899679184,4.8582721799612045 0 0 1 83.13831467084019,51.28403648106684 z" fill="#fff" id="svg_1" class=""/></g></svg>