<svg width="398" height="173"><defs id="SvgjsDefs1291"></defs><g id="SvgjsG1292" featurekey="root" fill="#ffffff"></g><g id="SvgjsG1293" featurekey="symbol1" fill="#000000" transform="matrix(0.7574186459560006,0,0,0.7574186459560006,161.13696674967278,8.855658047403882)"><title>Artboard 12</title><path d="M88.53,1.55C66.3,4.26,49.21,13.16,37.73,28L35,27.89a12.86,12.86,0,0,0-9.74,3.75L19,37.91a3.15,3.15,0,0,0,1,5.14l7.8,3.23a58.86,58.86,0,0,0-2,6.86l-.38,1.73a2.5,2.5,0,0,0,.68,2.3L40.52,71.54a2.5,2.5,0,0,0,2.3.68l1.73-.37a59.3,59.3,0,0,0,6.87-2l3.24,7.8a3.15,3.15,0,0,0,5.14,1l6.28-6.28a12.87,12.87,0,0,0,3.75-9.74L69.68,60C84.54,48.49,93.44,31.4,96.15,9.18a6.85,6.85,0,0,0-7.62-7.62Zm2.66,7C88.59,29.92,80,46.13,65.62,56.77a2.5,2.5,0,0,0-1,2.14l.21,4h0a7.87,7.87,0,0,1-2.29,6L58.2,73.21l-3.1-7.47a2.5,2.5,0,0,0-3.22-1.37A55.44,55.44,0,0,1,43.49,67l-.4.09L30.66,54.61l.09-.4a55.46,55.46,0,0,1,2.58-8.4A2.5,2.5,0,0,0,32,42.59l-7.46-3.1,4.32-4.32a7.86,7.86,0,0,1,6-2.29l4,.21a2.48,2.48,0,0,0,2.14-1c10.64-14.36,26.86-23,48.2-25.56a1.85,1.85,0,0,1,2.06,2.06ZM26.9,68.26a3,3,0,0,0,.23-4.5,2.44,2.44,0,0,0-.3-.25c-4.17-3-8.21-4.08-12-3.07C9.06,62,5.65,67.84,4.13,71.21a3.66,3.66,0,0,0,4,5.1l.33-.06c-3.67,4.47-6.2,10.89-3.64,19.63A3.64,3.64,0,0,0,8.35,98.5h.12a3.69,3.69,0,0,0,2.64-1.25c2-2.31,7.43-4.15,14.44-4.92a14.27,14.27,0,0,0,9.63-5.11C39.8,81.54,37.65,75,34.1,70.79a3,3,0,0,0-2.32-1.08h0a3,3,0,0,0-2.34,1.11,9.23,9.23,0,0,1-5.91,3.37A9.23,9.23,0,0,1,26.9,68.26Zm4.64,7.53c1.32,2.21,2.18,5.29-.24,8.27A9.43,9.43,0,0,1,25,87.36c-5.16.57-11.76,1.89-15.88,5-1.21-6.36.9-11.62,6.41-16A2.5,2.5,0,0,0,14.89,72a14.69,14.69,0,0,0-5.07-.88H9.76c1.36-2.39,3.49-5.13,6.34-5.88a7.86,7.86,0,0,1,5.74,1A14.27,14.27,0,0,0,18.41,76a3.36,3.36,0,0,0,3.26,3.26A14.28,14.28,0,0,0,31.55,75.79ZM74,23.67a10.28,10.28,0,1,0,0,14.54h0A10.3,10.3,0,0,0,74,23.67Zm-3.54,11h0a5.28,5.28,0,1,1,0-7.47A5.25,5.25,0,0,1,70.49,34.68Z"></path></g><g id="SvgjsG1294" featurekey="text1" fill="#000000" transform="matrix(2.9527556726956212,0,0,2.9527556726956212,-5.314960774045567,99.41732841114774)"><path d="M4.02 17.76 l8.14 0 l0 1.84 l-10.36 0 l0 -15 l9.98 0 l0 1.84 l-7.76 0 l0 4.44 l6.34 0 l0 1.86 l-6.34 0 l0 5.02 z M18.58 9.520000000000001 c2.84 0 3.98 1.72 3.98 3.18 l0 6.9 l-2.06 0 l0 -1.08 c-0.72 0.98 -2 1.26 -2.8 1.26 c-2.26 0 -3.74 -1.32 -3.74 -3.08 c0 -2.46 1.84 -3.34 3.74 -3.34 l2.8 0 l0 -0.66 c0 -0.62 -0.24 -1.48 -1.92 -1.48 c-0.94 0 -1.8 0.5 -2.36 1.28 l-1.42 -1.28 c0.94 -1.04 2.28 -1.7 3.78 -1.7 z M20.5 16.520000000000003 l0 -1.48 l-2.52 0 c-1.22 0 -2.08 0.62 -1.94 1.74 c0.12 0.94 0.88 1.32 1.94 1.32 c1.9 0 2.52 -0.9 2.52 -1.58 z M31.98 15.760000000000002 c0.04 0.12 0.38 1.1 -0.04 2.1 c-0.52 1.18 -1.9 1.94 -3.62 1.94 l-0.02 0 c-1.38 0 -2.64 -0.58 -3.58 -1.5 l1.34 -1.34 c0.56 0.72 1.36 1.08 2.24 1.08 c0.98 0 1.8 -0.36 2.02 -0.88 c0.14 -0.36 0.02 -0.74 0.02 -0.78 c-0.24 -0.6 -1.12 -0.72 -2.12 -0.94 c-1.34 -0.3 -2.68 -0.64 -3.2 -2.04 c-0.26 -0.72 -0.18 -1.56 0.18 -2.26 c0.82 -1.54 2.86 -1.6 3.1 -1.6 c1.38 0 2.68 0.52 3.6 1.46 l-1.34 1.34 c-0.56 -0.72 -1.38 -1.04 -2.26 -1.04 c-0.02 0 -1.2 0.02 -1.54 0.68 c-0.12 0.2 -0.18 0.54 -0.08 0.82 c0.2 0.56 1.1 0.74 2.06 0.96 c1.3 0.3 2.72 0.6 3.24 2 z M43.02 9.72 c0 0 -2.5 5.92 -4.16 9.88 c-1.4 3.32 -2.5 5.32 -4.36 5.32 c-0.58 0 -1.32 -0.28 -1.86 -0.6 l0.62 -1.8 c0.16 0.14 0.52 0.34 0.76 0.4 c1.54 0.44 2.5 -2.78 3.16 -4.36 l-3.74 -8.84 l2.08 0 l2.72 6.48 l2.7 -6.48 l2.08 0 z  M53.04 17.76 l7.56 0 l0 1.84 l-9.78 0 l0 -15 l2.22 0 l0 13.16 z M66.82000000000001 9.520000000000001 c2.84 0 3.98 1.72 3.98 3.18 l0 6.9 l-2.06 0 l0 -1.08 c-0.72 0.98 -2 1.26 -2.8 1.26 c-2.26 0 -3.74 -1.32 -3.74 -3.08 c0 -2.46 1.84 -3.34 3.74 -3.34 l2.8 0 l0 -0.66 c0 -0.62 -0.24 -1.48 -1.92 -1.48 c-0.94 0 -1.8 0.5 -2.36 1.28 l-1.42 -1.28 c0.94 -1.04 2.28 -1.7 3.78 -1.7 z M68.74000000000001 16.520000000000003 l0 -1.48 l-2.52 0 c-1.22 0 -2.08 0.62 -1.94 1.74 c0.12 0.94 0.88 1.32 1.94 1.32 c1.9 0 2.52 -0.9 2.52 -1.58 z M73.14000000000001 15.420000000000002 l0 -5.7 l2.06 0 l0 5.5 c0 2 0.62 2.88 2.32 2.88 c1.92 0 2.7 -1.34 2.7 -3.08 l0 -5.3 l2.06 0 l0 9.88 l-2.06 0 l0 -1.6 c-0.28 0.88 -1.52 1.68 -2.7 1.76 c-2.68 0.2 -4.38 -1.1 -4.38 -4.34 z M94.22000000000001 13.900000000000002 l0 5.7 l-2.06 0 l0 -5.5 c0 -2 -0.62 -2.88 -2.32 -2.88 c-1.92 0 -2.7 1.34 -2.7 3.08 l0 5.3 l-2.06 0 l0 -9.88 l2.06 0 l0 1.6 c0.28 -0.88 1.52 -1.68 2.7 -1.76 c2.68 -0.2 4.38 1.1 4.38 4.34 z M103.86 17.020000000000003 l1.42 1.28 c-0.94 1.04 -2.28 1.5 -3.78 1.5 c-2.84 0 -5.14 -2.18 -5.14 -5.12 s2.3 -5.14 5.14 -5.14 c1.5 0 2.84 0.46 3.78 1.5 l-1.42 1.28 c-0.58 -0.78 -1.42 -1.08 -2.36 -1.08 c-1.7 0 -3.08 1.42 -3.08 3.44 c0 2 1.38 3.44 3.08 3.44 c0.94 0 1.78 -0.3 2.36 -1.1 z M116.62 13.900000000000002 l0 5.7 l-2.06 0 l0 -5.5 c0 -2 -0.62 -2.88 -2.32 -2.88 c-1.92 0 -2.7 1.34 -2.7 3.08 l0 5.3 l-2.06 0 l0 -15 l2.06 0 l0 6.72 c0.28 -0.88 1.52 -1.68 2.7 -1.76 c2.68 -0.2 4.38 1.1 4.38 4.34 z M128.54000000000002 14.680000000000001 l0 0.74 l-7.78 0 c0 1.82 1.74 2.7 3.02 2.7 c0.94 0 1.98 -0.5 2.54 -1.3 l1.42 1.28 c-0.66 0.9 -1.74 1.7 -3.96 1.7 c-3.2 0 -5.16 -2.18 -5.16 -5.12 s1.9 -5.14 4.96 -5.14 s4.46 1.7 4.88 4.18 c0.06 0.32 0.08 0.64 0.08 0.96 z M120.80000000000001 13.720000000000002 l5.58 0 c0 -1.6 -1.28 -2.48 -2.8 -2.48 s-2.78 1.02 -2.78 2.48 z M136.48 9.840000000000002 l-0.44 1.62 c-0.14 -0.08 -0.58 -0.22 -0.94 -0.22 c-1.7 0 -2.5 1.62 -2.5 3.62 l0 4.74 l-2.06 0 l0 -9.88 l2.06 0 l0 1.4 c0.24 -0.92 1.3 -1.58 2.48 -1.58 c0.54 0 1.12 0.14 1.4 0.3 z"></path></g></svg>