<svg xmlns="http://www.w3.org/2000/svg" width="130" height="130"><rect id="backgroundrect" width="100%" height="100%" x="0" y="0" fill="none" stroke="none" class="" style=""/>
  
  
<g class="currentLayer" style=""><title>Layer 1</title><path d="M104.39206924915314,16.72241406440735 C82.16206924915313,19.432414064407347 65.07206924915315,28.33241406440735 53.592069249153134,43.17241406440735 L50.86206924915314,43.06241406440735 a12.86,12.86 0 0 0 -9.74,3.75 L34.86206924915314,53.082414064407345 a3.15,3.15 0 0 0 1,5.14 l7.8,3.23 a58.86,58.86 0 0 0 -2,6.86 l-0.38000000000000295,1.73 a2.5,2.5 0 0 0 0.6800000000000077,2.3 L56.38206924915314,86.71241406440735 a2.5,2.5 0 0 0 2.3,0.6800000000000077 l1.73,-0.3700000000000018 a59.3,59.3 0 0 0 6.87,-2 l3.24,7.8 a3.15,3.15 0 0 0 5.14,1 l6.28,-6.28 a12.870000000000001,12.870000000000001 0 0 0 3.75,-9.74 L85.54206924915314,75.17241406440735 C100.40206924915314,63.66241406440736 109.30206924915313,46.57241406440735 112.01206924915314,24.35241406440735 a6.85,6.85 0 0 0 -7.62,-7.62 zm2.66,7 C104.45206924915314,45.09241406440735 95.86206924915314,61.302414064407344 81.48206924915314,71.94241406440736 a2.5,2.5 0 0 0 -1,2.14 l0.21000000000000021,4 h0 a7.87,7.87 0 0 1 -2.29,6 L74.06206924915314,88.38241406440734 l-3.1,-7.47 a2.5,2.5 0 0 0 -3.22,-1.37 A55.44,55.44 0 0 1 59.35206924915314,82.17241406440735 l-0.4,0.09000000000000118 L46.522069249153134,69.78241406440735 l0.09000000000000118,-0.4 a55.46,55.46 0 0 1 2.58,-8.4 A2.5,2.5 0 0 0 47.86206924915314,57.76241406440735 l-7.46,-3.1 l4.32,-4.32 a7.86,7.86 0 0 1 6,-2.29 l4,0.21000000000000021 a2.48,2.48 0 0 0 2.14,-1 c10.64,-14.36 26.86,-23 48.2,-25.56 a1.85,1.85 0 0 1 2.06,2.06 zM42.762069249153136,83.43241406440735 a3,3 0 0 0 0.23,-4.5 a2.44,2.44 0 0 0 -0.3000000000000003,-0.25 c-4.17,-3 -8.21,-4.08 -12,-3.07 C24.92206924915314,77.17241406440735 21.512069249153136,83.01241406440735 19.992069249153136,86.38241406440734 a3.66,3.66 0 0 0 4,5.1 l0.33000000000000335,-0.0600000000000006 c-3.67,4.47 -6.2,10.89 -3.64,19.63 A3.64,3.64 0 0 0 24.21206924915314,113.67241406440735 h0.12000000000000002 a3.6900000000000004,3.6900000000000004 0 0 0 2.64,-1.25 c2,-2.31 7.43,-4.15 14.44,-4.92 a14.27,14.27 0 0 0 9.63,-5.11 C55.662069249153134,96.71241406440735 53.512069249153136,90.17241406440735 49.96206924915314,85.96241406440735 a3,3 0 0 0 -2.3200000000000003,-1.08 h0 a3,3 0 0 0 -2.34,1.11 a9.23,9.23 0 0 1 -5.91,3.37 A9.23,9.23 0 0 1 42.762069249153136,83.43241406440735 zm4.6400000000000015,7.53 c1.32,2.21 2.18,5.29 -0.2400000000000002,8.27 A9.43,9.43 0 0 1 40.86206924915314,102.53241406440735 c-5.16,0.5700000000000006 -11.76,1.8900000000000001 -15.88,5 c-1.21,-6.36 0.9,-11.620000000000001 6.41,-16 A2.5,2.5 0 0 0 30.752069249153138,87.17241406440735 a14.69,14.69 0 0 0 -5.07,-0.8800000000000059 H25.622069249153135 c1.36,-2.39 3.49,-5.13 6.34,-5.88 a7.86,7.86 0 0 1 5.74,1 A14.27,14.27 0 0 0 34.272069249153134,91.17241406440735 a3.36,3.36 0 0 0 3.26,3.26 A14.28,14.28 0 0 0 47.412069249153134,90.96241406440735 zM89.86206924915314,38.84241406440735 a10.28,10.28 0 1 0 0,14.54 h0 A10.3,10.3 0 0 0 89.86206924915314,38.84241406440735 zm-3.54,11 h0 a5.28,5.28 0 1 1 0,-7.47 A5.25,5.25 0 0 1 86.35206924915313,49.85241406440735 z" id="svg_1" class="selected"/></g></svg>