<svg xmlns="http://www.w3.org/2000/svg" viewBox="0 0 100 100">
  <path d="M88.53,1.55C66.3,4.26,49.21,13.16,37.73,28L35,27.89a12.86,12.86,0,0,0-9.74,3.75L19,37.91a3.15,3.15,0,0,0,1,5.14l7.8,3.23a58.86,58.86,0,0,0-2,6.86l-.38,1.73a2.5,2.5,0,0,0,.68,2.3L40.52,71.54a2.5,2.5,0,0,0,2.3.68l1.73-.37a59.3,59.3,0,0,0,6.87-2l3.24,7.8a3.15,3.15,0,0,0,5.14,1l6.28-6.28a12.87,12.87,0,0,0,3.75-9.74L69.68,60C84.54,48.49,93.44,31.4,96.15,9.18a6.85,6.85,0,0,0-7.62-7.62Zm2.66,7C88.59,29.92,80,46.13,65.62,56.77a2.5,2.5,0,0,0-1,2.14l.21,4h0a7.87,7.87,0,0,1-2.29,6L58.2,73.21l-3.1-7.47a2.5,2.5,0,0,0-3.22-1.37A55.44,55.44,0,0,1,43.49,67l-.4.09L30.66,54.61l.09-.4a55.46,55.46,0,0,1,2.58-8.4A2.5,2.5,0,0,0,32,42.59l-7.46-3.1,4.32-4.32a7.86,7.86,0,0,1,6-2.29l4,.21a2.48,2.48,0,0,0,2.14-1c10.64-14.36,26.86-23,48.2-25.56a1.85,1.85,0,0,1,2.06,2.06ZM26.9,68.26a3,3,0,0,0,.23-4.5,2.44,2.44,0,0,0-.3-.25c-4.17-3-8.21-4.08-12-3.07C9.06,62,5.65,67.84,4.13,71.21a3.66,3.66,0,0,0,4,5.1l.33-.06c-3.67,4.47-6.2,10.89-3.64,19.63A3.64,3.64,0,0,0,8.35,98.5h.12a3.69,3.69,0,0,0,2.64-1.25c2-2.31,7.43-4.15,14.44-4.92a14.27,14.27,0,0,0,9.63-5.11C39.8,81.54,37.65,75,34.1,70.79a3,3,0,0,0-2.32-1.08h0a3,3,0,0,0-2.34,1.11,9.23,9.23,0,0,1-5.91,3.37A9.23,9.23,0,0,1,26.9,68.26Zm4.64,7.53c1.32,2.21,2.18,5.29-.24,8.27A9.43,9.43,0,0,1,25,87.36c-5.16.57-11.76,1.89-15.88,5-1.21-6.36.9-11.62,6.41-16A2.5,2.5,0,0,0,14.89,72a14.69,14.69,0,0,0-5.07-.88H9.76c1.36-2.39,3.49-5.13,6.34-5.88a7.86,7.86,0,0,1,5.74,1A14.27,14.27,0,0,0,18.41,76a3.36,3.36,0,0,0,3.26,3.26A14.28,14.28,0,0,0,31.55,75.79ZM74,23.67a10.28,10.28,0,1,0,0,14.54h0A10.3,10.3,0,0,0,74,23.67Zm-3.54,11h0a5.28,5.28,0,1,1,0-7.47A5.25,5.25,0,0,1,70.49,34.68Z" fill="#fff"></path>
</svg>
